<?xml version="1.0" encoding="utf-8"?>
<!-- Generator: Adobe Illustrator 19.1.0, SVG Export Plug-In . SVG Version: 6.00 Build 0)  -->
<svg version="1.1" id="Layer_1" xmlns="http://www.w3.org/2000/svg" xmlns:xlink="http://www.w3.org/1999/xlink" x="0px" y="0px"
	 viewBox="37 -50 100 125" style="enable-background:new 37 -50 100 125;" xml:space="preserve">
<path d="M131.1-14c-0.2-0.9-1-1.3-1.5-1.5c-1.1-0.4-3.6-0.6-4.6-0.6c-1-0.1-1.3,1.4-1.3,1.4l-0.6,3.1h-2.7c0,0-4.4-15.3-8.9-16.1
	c-7-2.5-42-2.5-49.9,0c-4.6,0.8-8.9,16.1-8.9,16.1h-2.7l-0.6-3.1c0,0-0.2-1.5-1.3-1.4c-1,0.1-3.5,0.3-4.6,0.6
	c-0.5,0.2-1.3,0.6-1.5,1.5s-1.3,2.9,1.1,3.2c2.4,0.4,8.4,0.8,8.4,0.8s-2,2.8-5.9,5.1c-2.2,1.4-0.5,24.1-0.6,24.7
	c-0.1,0.6,0,7.8,0,7.8s0,2.1,1.8,2.1c1.8,0,6.8,0,6.8,0s2,0.2,2.1-1.2c0.1-1.4,0.4-4,0.4-4h61c0,0,0.3,2.6,0.4,4
	c0.1,1.4,2.1,1.2,2.1,1.2s5,0,6.8,0c1.8,0,1.8-2.1,1.8-2.1s0.1-7.2,0-7.8c-0.1-0.6,1.7-23.3-0.6-24.7c-4-2.3-5.9-5.1-5.9-5.1
	s5.9-0.4,8.4-0.8C132.4-11.2,131.3-13.2,131.1-14z M59.9-25.4c6.8-2.1,46.9-2.1,53.1,0c5.2,8.5,5.3,13.5,5.3,13.5H54.6
	C54.6-11.9,54.7-16.9,59.9-25.4z M105.3,20.8H67.7c-0.4,0-0.7-0.2-0.9-0.6l-1-2.1h41.5l-1,2.1C106,20.6,105.7,20.8,105.3,20.8z
	 M103.4,14.9c-7,0.7-26.7,0.7-33.7,0c-7-0.7-7-2.9-6.6-4.9c0.4-2.2,1.4-3.5,6-5.5c4.6-2,17.5-1.9,17.5-1.9S99.4,2.6,104,4.6
	c4.6,2,5.6,3.3,6,5.5C110.4,12.1,110.4,14.3,103.4,14.9z M57.7,15.4c-0.4,0.3-0.9,0.4-1.4,0.3c0,0-7.4-1.2-8.5-1.7
	c0,0,0.3,1.7,0.4,2.1c0.1,0.4,0.6,1.5,0.6,1.5c-0.6-0.3-1-1.5-1.1-1.9s-0.5-3-0.5-3c1.1,0.7,11.2,2.2,11.2,2.2L57.7,15.4z M64.6,1.7
	c0,0-3,1.9-4.9,1.9c-2,0-8.6-0.6-9.9-1.2c-1.2-0.5-1.8-2.5-1.8-3.1c-0.1-0.6-0.1-1.8,0.1-2.5s1.2-2,2.3-1.9c0.9,0.1,2.2,1,2.8,1.6
	c0.7,0.7,1.6,1.2,2.7,1.4s4.5,0.9,5.7,1.4C62.5-0.4,64.6,1.7,64.6,1.7z M115.5,14.9c0,0,10.1-1.5,11.2-2.2c0,0-0.4,2.6-0.5,3
	s-0.5,1.6-1.1,1.9c0,0,0.5-1.1,0.6-1.5c0.1-0.4,0.4-2.1,0.4-2.1c-1,0.5-8.5,1.7-8.5,1.7c-0.5,0.1-1,0-1.4-0.3L115.5,14.9z
	 M112.4-0.8c1.2-0.5,4.5-1.3,5.7-1.4s2-0.6,2.7-1.4c0.6-0.7,1.9-1.5,2.8-1.6c1.2-0.1,2.1,1.2,2.3,1.9s0.2,1.9,0.1,2.5
	c-0.1,0.6-0.7,2.6-1.8,3.1c-1.3,0.6-7.9,1.2-9.9,1.2s-4.9-1.9-4.9-1.9S111.5-0.4,112.4-0.8z"/>
</svg>
