<svg xmlns="http://www.w3.org/2000/svg" xmlns:xlink="http://www.w3.org/1999/xlink" version="1.1" x="0px" y="0px" viewBox="0 0 100 125" enable-background="new 0 0 100 100" xml:space="preserve"><path d="M94.074,35.969c-0.237-0.871-0.997-1.342-1.504-1.504c-1.104-0.353-3.563-0.554-4.591-0.633  c-1.029-0.079-1.268,1.425-1.268,1.425l-0.633,3.087h-2.691c0,0-4.354-15.278-8.945-16.07c-7.046-2.454-42.035-2.533-49.872,0  c-4.591,0.792-8.945,16.07-8.945,16.07h-2.691l-0.633-3.087c0,0-0.238-1.504-1.267-1.425c-1.029,0.079-3.488,0.281-4.592,0.633  c-0.507,0.162-1.267,0.633-1.504,1.504s-1.296,2.862,1.147,3.246c2.431,0.381,8.353,0.792,8.353,0.792s-1.979,2.85-5.938,5.146  C6.285,46.577,8.026,69.217,7.947,69.85c-0.079,0.635,0,7.838,0,7.838s0,2.059,1.821,2.059c1.82,0,6.808,0,6.808,0  s1.979,0.236,2.058-1.188c0.08-1.426,0.396-4.037,0.396-4.037h60.954c0,0,0.317,2.611,0.396,4.037  c0.079,1.424,2.058,1.188,2.058,1.188s4.987,0,6.809,0c1.82,0,1.82-2.059,1.82-2.059s0.079-7.203,0-7.838  c-0.079-0.633,1.662-23.273-0.554-24.698c-3.959-2.295-5.938-5.146-5.938-5.146s5.922-0.41,8.352-0.792  C95.371,38.831,94.312,36.84,94.074,35.969z M22.948,24.609c6.769-2.137,46.904-2.098,53.118,0  c5.225,8.51,5.304,13.497,5.304,13.497H17.645C17.645,38.106,17.724,33.12,22.948,24.609z M10.876,46.26c0,0,3.147-0.041,4.195,0  c9.521,0.376,14.605,5.423,14.605,5.423s-1.504,0.395-3.048,1.068c-1.544,0.672-2.177,0.355-2.177,0.355s-3.206-0.395-5.344-0.752  C16.971,52,16.18,53.107,16.18,53.107s-0.838-0.027-3.009-0.83c-2.137-0.793-2.204-2.069-2.295-2.89  C10.771,48.437,10.876,46.26,10.876,46.26z M24.333,69.336c0,0-7.085-0.594-10.607-0.988c-3.522-0.396-3.642-7.205-3.642-7.205  s5.938,1.426,9.658,1.82c3.721,0.396,4.71,2.455,4.71,2.455s1.068,1.582,1.579,2.93C26.542,69.691,24.333,69.336,24.333,69.336z   M68.94,69.85H30.073l-1.307-2.65h41.481L68.94,69.85z M66.368,64.943c-7.006,0.672-26.716,0.672-33.722,0  c-7.006-0.674-7.019-2.857-6.61-4.869c0.439-2.168,1.425-4.512,6.016-6.49c4.592-1.98,17.456-1.861,17.456-1.861  s12.863-0.119,17.455,1.861c4.591,1.979,5.576,4.322,6.016,6.49C73.386,62.086,73.374,64.27,66.368,64.943z M85.287,68.348  c-3.522,0.395-10.607,0.988-10.607,0.988s-2.208,0.355-1.697-0.988c0.51-1.348,1.579-2.93,1.579-2.93s0.989-2.059,4.71-2.455  c3.721-0.395,9.657-1.82,9.657-1.82S88.811,67.951,85.287,68.348z M88.138,46.26c0,0,0.105,2.177,0,3.127  c-0.092,0.821-0.158,2.097-2.296,2.89c-2.17,0.803-3.008,0.83-3.008,0.83s-0.792-1.107-2.93-0.752  c-2.137,0.357-5.343,0.752-5.343,0.752s-0.634,0.316-2.177-0.355c-1.544-0.674-3.048-1.068-3.048-1.068s5.084-5.047,14.604-5.423  C84.99,46.219,88.138,46.26,88.138,46.26z"/><path d="M52.613,53.752c-0.697-0.379-3.106-0.443-3.106-0.443s-2.408,0.064-3.106,0.443c-0.697,0.381,1.015,1.332,1.015,1.332  s1.015-1.268,1.268-0.57s0.824,4.373,0.824,4.373s0.571-3.676,0.824-4.373c0.254-0.697,1.269,0.57,1.269,0.57  S53.312,54.133,52.613,53.752z"/><text x="0" y="115" fill="#000000" font-size="5px" font-weight="bold" font-family="'Helvetica Neue', Helvetica, Arial-Unicode, Arial, Sans-serif">Created by AlexNordlicht</text><text x="0" y="120" fill="#000000" font-size="5px" font-weight="bold" font-family="'Helvetica Neue', Helvetica, Arial-Unicode, Arial, Sans-serif">from the Noun Project</text></svg>