<svg xmlns="http://www.w3.org/2000/svg" xmlns:xlink="http://www.w3.org/1999/xlink" version="1.1" x="0px" y="0px" viewBox="0 0 100 125" enable-background="new 0 0 100 100" xml:space="preserve"><path fill="#000000" d="M94.179,11.84c-0.516-0.376-1.18-0.484-1.789-0.289l-28.122,9.007l-29.12-9.013  c-0.393-0.122-0.812-0.119-1.205,0.007L5.387,20.75C4.561,21.017,4,21.786,4,22.654v61.951c0,0.639,0.306,1.24,0.822,1.616  c0.346,0.252,0.76,0.384,1.178,0.384c0.205,0,0.412-0.031,0.612-0.096l28.029-9.006l29.106,9.012  c0.392,0.121,0.812,0.119,1.203-0.006l28.662-9.198C94.438,77.046,95,76.276,95,75.407V13.455C95,12.816,94.695,12.216,94.179,11.84  z M37,16.305l25,7.737v57.746l-25-7.741V16.305z M8,24.111l25-8.054V73.83L8,81.862V24.111z M91,73.948l-25,8.023V24.203l25-8.007  V73.948z"/><text x="0" y="115" fill="#000000" font-size="5px" font-weight="bold" font-family="'Helvetica Neue', Helvetica, Arial-Unicode, Arial, Sans-serif">Created by Austin Condiff</text><text x="0" y="120" fill="#000000" font-size="5px" font-weight="bold" font-family="'Helvetica Neue', Helvetica, Arial-Unicode, Arial, Sans-serif">from the Noun Project</text></svg>